<svg xmlns="http://www.w3.org/2000/svg" viewBox="-6 -6 112 112" width="512" height="512"><circle cx="8" cy="8" r="2.98" fill="#FAFDFF" opacity="0.09"/><circle cx="8" cy="18.5" r="2.98" fill="#FAFDFF" opacity="0.09"/><circle cx="8" cy="29" r="2.98" fill="#FAFDFF" opacity="0.09"/><circle cx="8" cy="39.5" r="2.98" fill="#FAFDFF" opacity="0.09"/><circle cx="8" cy="50" r="2.98" fill="#FAFDFF" opacity="0.09"/><circle cx="8" cy="60.5" r="2.98" fill="#FAFDFF" opacity="0.09"/><circle cx="8" cy="71" r="2.98" fill="#FAFDFF" opacity="0.09"/><circle cx="8" cy="81.5" r="2.98" fill="#FAFDFF" opacity="0.09"/><circle cx="8" cy="92" r="2.98" fill="#FAFDFF" opacity="0.09"/><circle cx="18.5" cy="8" r="2.98" fill="#FAFDFF" opacity="0.09"/><circle cx="18.5" cy="18.5" r="2.98" fill="#FAFDFF" opacity="0.09"/><circle cx="18.5" cy="29" r="2.98" fill="#FAFDFF" opacity="0.09"/><circle cx="18.5" cy="39.5" r="2.98" fill="#FAFDFF" opacity="0.09"/><circle cx="18.5" cy="50" r="2.98" fill="#FAFDFF" opacity="0.09"/><circle cx="18.5" cy="60.5" r="2.98" fill="#FAFDFF" opacity="0.09"/><circle cx="18.5" cy="71" r="2.98" fill="#FAFDFF" opacity="0.09"/><circle cx="18.5" cy="81.5" r="2.98" fill="#FAFDFF" opacity="0.09"/><circle cx="18.5" cy="92" r="2.98" fill="#FAFDFF" opacity="0.09"/><circle cx="29" cy="8" r="2.98" fill="#FAFDFF" opacity="0.09"/><circle cx="29" cy="18.5" r="2.98" fill="#FAFDFF" opacity="0.09"/><circle cx="29" cy="29" r="3.1" fill="#FAFDFF" opacity="0.14"/><circle cx="29" cy="39.5" r="3.06" fill="#FAFDFF" opacity="0.12"/><circle cx="29" cy="50" r="2.98" fill="#FAFDFF" opacity="0.09"/><circle cx="29" cy="60.5" r="2.98" fill="#FAFDFF" opacity="0.09"/><circle cx="29" cy="71" r="2.98" fill="#FAFDFF" opacity="0.09"/><circle cx="29" cy="81.5" r="2.98" fill="#FAFDFF" opacity="0.09"/><circle cx="29" cy="92" r="2.98" fill="#FAFDFF" opacity="0.09"/><circle cx="39.5" cy="8" r="3.11" fill="#FAFDFF" opacity="0.15"/><circle cx="39.5" cy="18.5" r="3.47" fill="#FAFDFF" opacity="0.29"/><circle cx="39.5" cy="29" r="3.66" fill="#FAFDFF" opacity="0.36"/><circle cx="39.5" cy="39.5" r="3.6" fill="#FAFDFF" opacity="0.34"/><circle cx="39.5" cy="50" r="3.33" fill="#FAFDFF" opacity="0.23"/><circle cx="39.5" cy="60.5" r="2.98" fill="#FAFDFF" opacity="0.09"/><circle cx="39.5" cy="71" r="2.98" fill="#FAFDFF" opacity="0.09"/><circle cx="39.5" cy="81.5" r="2.98" fill="#FAFDFF" opacity="0.09"/><circle cx="39.5" cy="92" r="2.98" fill="#FAFDFF" opacity="0.09"/><circle cx="50" cy="8" r="3.44" fill="#FAFDFF" opacity="0.28"/><circle cx="50" cy="18.5" r="3.91" fill="#FAFDFF" opacity="0.46"/><circle cx="50" cy="29" r="4.21" fill="#FAFDFF" opacity="0.58"/><circle cx="50" cy="39.5" r="4.12" fill="#FAFDFF" opacity="0.55"/><circle cx="50" cy="50" r="3.72" fill="#FAFDFF" opacity="0.39"/><circle cx="50" cy="60.5" r="3.22" fill="#FAFDFF" opacity="0.19"/><circle cx="50" cy="71" r="2.98" fill="#FAFDFF" opacity="0.09"/><circle cx="50" cy="81.5" r="2.98" fill="#FAFDFF" opacity="0.09"/><circle cx="50" cy="92" r="2.98" fill="#FAFDFF" opacity="0.09"/><circle cx="60.5" cy="8" r="3.59" fill="#FAFDFF" opacity="0.33"/><circle cx="60.5" cy="18.5" r="4.15" fill="#FAFDFF" opacity="0.56"/><circle cx="60.5" cy="29" r="4.7" fill="#FAFDFF" opacity="0.78"/><circle cx="60.5" cy="39.5" r="4.47" fill="#FAFDFF" opacity="0.69"/><circle cx="60.5" cy="50" r="3.91" fill="#FAFDFF" opacity="0.46"/><circle cx="60.5" cy="60.5" r="3.35" fill="#FAFDFF" opacity="0.24"/><circle cx="60.5" cy="71" r="2.98" fill="#FAFDFF" opacity="0.09"/><circle cx="60.5" cy="81.5" r="2.98" fill="#FAFDFF" opacity="0.09"/><circle cx="60.5" cy="92" r="2.98" fill="#FAFDFF" opacity="0.09"/><circle cx="71" cy="8" r="3.5" fill="#FAFDFF" opacity="0.3"/><circle cx="71" cy="18.5" r="4.01" fill="#FAFDFF" opacity="0.5"/><circle cx="71" cy="29" r="4.37" fill="#FAFDFF" opacity="0.65"/><circle cx="71" cy="39.5" r="4.25" fill="#FAFDFF" opacity="0.6"/><circle cx="71" cy="50" r="3.8" fill="#FAFDFF" opacity="0.42"/><circle cx="71" cy="60.5" r="3.27" fill="#FAFDFF" opacity="0.21"/><circle cx="71" cy="71" r="2.98" fill="#FAFDFF" opacity="0.09"/><circle cx="71" cy="81.5" r="2.98" fill="#FAFDFF" opacity="0.09"/><circle cx="71" cy="92" r="2.98" fill="#FAFDFF" opacity="0.09"/><circle cx="81.5" cy="8" r="3.22" fill="#FAFDFF" opacity="0.19"/><circle cx="81.5" cy="18.5" r="3.6" fill="#FAFDFF" opacity="0.34"/><circle cx="81.5" cy="29" r="3.82" fill="#FAFDFF" opacity="0.43"/><circle cx="81.5" cy="39.5" r="3.76" fill="#FAFDFF" opacity="0.4"/><circle cx="81.5" cy="50" r="3.45" fill="#FAFDFF" opacity="0.28"/><circle cx="81.5" cy="60.5" r="3.03" fill="#FAFDFF" opacity="0.11"/><circle cx="81.5" cy="71" r="2.98" fill="#FAFDFF" opacity="0.09"/><circle cx="81.5" cy="81.5" r="2.98" fill="#FAFDFF" opacity="0.09"/><circle cx="81.5" cy="92" r="2.98" fill="#FAFDFF" opacity="0.09"/><circle cx="92" cy="8" r="2.98" fill="#FAFDFF" opacity="0.09"/><circle cx="92" cy="18.5" r="3.11" fill="#FAFDFF" opacity="0.15"/><circle cx="92" cy="29" r="3.26" fill="#FAFDFF" opacity="0.2"/><circle cx="92" cy="39.5" r="3.22" fill="#FAFDFF" opacity="0.19"/><circle cx="92" cy="50" r="3" fill="#FAFDFF" opacity="0.1"/><circle cx="92" cy="60.5" r="2.98" fill="#FAFDFF" opacity="0.09"/><circle cx="92" cy="71" r="2.98" fill="#FAFDFF" opacity="0.09"/><circle cx="92" cy="81.5" r="2.98" fill="#FAFDFF" opacity="0.09"/><circle cx="92" cy="92" r="2.98" fill="#FAFDFF" opacity="0.09"/></svg>